# xmcd
#
# Track frame offsets: 
#        150
#        14933
#        35473
#        47851
#        69507
#        88516
#        107242
#        123536
#        133696
#        155164
#        175657
#
# Disc length: 2527 seconds
#
# Revision: 0
# Processed by: cddbd v1.5.2PL0 Copyright (c) Steve Scherf et al.
# Submitted via: ExactAudioCopy v0.99pb4
#
DISCID=9d09dd0b
DTITLE=Wade, Nathan - The Dead Leaves Sing
DYEAR=2006
DGENRE=Alt. Country
TTITLE0=Dead Leaves
TTITLE1=Season For The Crows
TTITLE2=Seen The Glory
TTITLE3=The Reaper's Son
TTITLE4=Suicidal Revival
TTITLE5=Sweat Through
TTITLE6=The Final Blow
TTITLE7=Long Black Lilies
TTITLE8=Skoal Bandits
TTITLE9=Dry Up Like A Dream
TTITLE10=Goin' Over
EXTD=
EXTT0=
EXTT1=
EXTT2=
EXTT3=
EXTT4=
EXTT5=
EXTT6=
EXTT7=
EXTT8=
EXTT9=
EXTT10=
PLAYORDER=
